<?xml version="1.0" encoding="UTF-8"?>
<svg id="Layer_1" xmlns="http://www.w3.org/2000/svg" version="1.1" viewBox="0 0 1001 1001">
  <!-- Generator: Adobe Illustrator 29.2.1, SVG Export Plug-In . SVG Version: 2.1.0 Build 116)  -->
  <defs>
    <style>
      .st0 {
        fill: #fff;
      }
    </style>
  </defs>
  <path class="st0" d="M500.5,50.5c60.8,0,119.7,11.9,175.1,35.3,53.6,22.7,101.7,55.1,143.1,96.5s73.8,89.5,96.5,143.1c23.5,55.4,35.3,114.4,35.3,175.1s-11.9,119.7-35.3,175.1c-22.7,53.6-55.1,101.7-96.5,143.1s-89.5,73.8-143.1,96.5c-55.4,23.5-114.4,35.3-175.1,35.3s-119.7-11.9-175.1-35.3c-53.6-22.7-101.7-55.1-143.1-96.5s-73.8-89.5-96.5-143.1c-23.5-55.4-35.3-114.4-35.3-175.1s11.9-119.7,35.3-175.1c22.7-53.6,55.1-101.7,96.5-143.1s89.5-73.8,143.1-96.5c55.4-23.5,114.4-35.3,175.1-35.3M500.5.5C224.4.5.5,224.4.5,500.5s223.9,500,500,500,500-223.9,500-500S776.6.5,500.5.5h0Z"/>
  <path class="st0" d="M432.6,367.7v-72.7h135.8v410.9h-81.2v-338.2h-54.7,0Z"/>
</svg>