<?xml version="1.0" encoding="UTF-8"?>
<svg id="Layer_1" xmlns="http://www.w3.org/2000/svg" version="1.1" viewBox="0 0 1001 1001">
  <!-- Generator: Adobe Illustrator 29.2.1, SVG Export Plug-In . SVG Version: 2.1.0 Build 116)  -->
  <defs>
    <style>
      .st0 {
        fill: #fff;
      }
    </style>
  </defs>
  <path class="st0" d="M500.5,50.5c60.8,0,119.7,11.9,175.1,35.3,53.6,22.7,101.7,55.1,143.1,96.5s73.8,89.5,96.5,143.1c23.5,55.4,35.3,114.4,35.3,175.1s-11.9,119.7-35.3,175.1c-22.7,53.6-55.1,101.7-96.5,143.1s-89.5,73.8-143.1,96.5c-55.4,23.5-114.4,35.3-175.1,35.3s-119.7-11.9-175.1-35.3c-53.6-22.7-101.7-55.1-143.1-96.5s-73.8-89.5-96.5-143.1c-23.5-55.4-35.3-114.4-35.3-175.1s11.9-119.7,35.3-175.1c22.7-53.6,55.1-101.7,96.5-143.1s89.5-73.8,143.1-96.5c55.4-23.5,114.4-35.3,175.1-35.3M500.5.5C224.4.5.5,224.4.5,500.5s223.9,500,500,500,500-223.9,500-500S776.6.5,500.5.5h0Z"/>
  <path class="st0" d="M390.8,624.2c36.1-30.1,64.8-55.2,86.2-75.3s39.3-41.1,53.6-62.8c14.3-21.8,21.4-43.2,21.4-64.3s-4.5-34.2-13.5-45.1c-9-10.9-22.9-16.4-41.7-16.4s-33.3,6.3-43.4,18.9c-10.1,12.5-15.4,29.8-15.8,51.6h-76.6c1.5-45.1,14.9-79.3,40.3-102.6,25.4-23.3,57.6-35,96.6-35s75.7,11.4,98.7,34.1c22.9,22.7,34.4,52.7,34.4,89.9s-7.9,57.3-23.7,84c-15.8,26.6-33.8,49.9-54.1,69.6-20.3,19.8-46.7,43.6-79.5,71.3h166.3v65.4h-278.4v-58.7l29.3-24.8h0Z"/>
</svg>