<?xml version="1.0" encoding="UTF-8"?>
<svg id="Layer_1" data-name="Layer 1" xmlns="http://www.w3.org/2000/svg" viewBox="0 0 1001 1001">
  <defs>
    <style>
      .cls-1 {
        fill: none;
        stroke: #fff;
        stroke-miterlimit: 10;
      }

      .cls-2 {
        fill: #fff;
      }
    </style>
  </defs>
  <circle class="cls-1" cx="500.5" cy="500.5" r="500"/>
  <path class="cls-2" d="M390.84383,624.21865c36.07162-30.07267,64.81985-55.1592,86.24468-75.25958,21.42483-20.10039,39.26587-41.05776,53.56207-62.79423,14.25725-21.81437,21.38588-43.2392,21.38588-64.27449,0-19.16548-4.47974-34.20182-13.51712-45.109-8.99843-10.90719-22.90509-16.36078-41.68103-16.36078-18.8149,0-33.26692,6.31059-43.43397,18.93176-10.1281,12.54326-15.38692,29.76104-15.77647,51.57541h-76.62298c1.48026-45.109,14.91947-79.31082,40.27868-102.60546,25.35921-23.29463,57.57436-34.9809,96.64546-34.9809,42.84966,0,75.72703,11.37464,98.67108,34.12391,22.90509,22.74927,34.35764,52.74404,34.35764,89.90638,0,29.29359-7.86876,57.34064-23.68418,83.98533-15.77647,26.6447-33.81228,49.86142-54.10743,69.57227-20.2562,19.78875-46.74508,43.55084-79.46664,71.28625h166.29563v65.44312h-278.44488v-58.66508l29.29359-24.77489Z"/>
</svg>