<?xml version="1.0" encoding="UTF-8"?>
<svg id="Layer_1" xmlns="http://www.w3.org/2000/svg" version="1.1" viewBox="0 0 1001 1001">
  <!-- Generator: Adobe Illustrator 29.2.1, SVG Export Plug-In . SVG Version: 2.1.0 Build 116)  -->
  <defs>
    <style>
      .st0 {
        fill: #fff;
      }
    </style>
  </defs>
  <path class="st0" d="M500.5,50.5c60.8,0,119.7,11.9,175.1,35.3,53.6,22.7,101.7,55.1,143.1,96.5s73.8,89.5,96.5,143.1c23.5,55.4,35.3,114.4,35.3,175.1s-11.9,119.7-35.3,175.1c-22.7,53.6-55.1,101.7-96.5,143.1s-89.5,73.8-143.1,96.5c-55.4,23.5-114.4,35.3-175.1,35.3s-119.7-11.9-175.1-35.3c-53.6-22.7-101.7-55.1-143.1-96.5s-73.8-89.5-96.5-143.1c-23.5-55.4-35.3-114.4-35.3-175.1s11.9-119.7,35.3-175.1c22.7-53.6,55.1-101.7,96.5-143.1s89.5-73.8,143.1-96.5c55.4-23.5,114.4-35.3,175.1-35.3M500.5.5C224.4.5.5,224.4.5,500.5s223.9,500,500,500,500-223.9,500-500S776.6.5,500.5.5h0Z"/>
  <path class="st0" d="M406.1,319.6c24.6-20.4,57-30.7,97.2-30.7s50.9,4.8,70.4,14.4c19.6,9.6,34.3,22.5,44.3,38.9,9.9,16.4,14.9,34.8,14.9,55.5s-6.1,43.7-18.3,60.1c-12.2,16.4-26.8,27.3-43.7,33v2.3c21.8,6.8,38.8,18.8,51,36.1,12.2,17.3,18.3,39.4,18.3,66.5s-5.2,42.6-15.5,60.3c-10.4,17.6-25.6,31.5-45.7,41.4-20.1,10-44.3,15-72.5,15-42.5,0-77-10.7-103.7-32.1s-40.7-53-42.3-94.7h76.7c.7,18.5,7.1,33.2,18.9,44.3,11.8,11.1,28,16.7,48.7,16.7s33.9-5.4,44.3-16c10.3-10.8,15.5-24.5,15.5-41.4s-7.2-38.7-21.4-48.5c-14.3-9.8-36.5-14.6-66.5-14.6h-16.4v-64.8h16.4c53.3,0,80-17.8,80-53.6s-4.8-28.7-14.4-37.7c-9.6-9-23.4-13.6-41.4-13.6s-31.3,4.8-40.9,14.4c-9.6,9.6-15.2,21.7-16.6,36.3h-77.2c1.9-37.6,15.1-66.6,39.7-87.1h0Z"/>
</svg>