<?xml version="1.0" encoding="UTF-8"?>
<svg id="Layer_1" data-name="Layer 1" xmlns="http://www.w3.org/2000/svg" viewBox="0 0 1001 1001">
  <defs>
    <style>
      .cls-1 {
        fill: none;
        stroke: #fff;
        stroke-miterlimit: 10;
      }

      .cls-2 {
        fill: #fff;
      }
    </style>
  </defs>
  <circle class="cls-1" cx="500.5" cy="500.5" r="500"/>
  <path class="cls-2" d="M406.09441,319.55757c24.58012-20.41202,56.99005-30.69594,97.22977-30.69594,27.42378,0,50.91319,4.83033,70.42926,14.41307,19.55503,9.58274,34.27973,22.51555,44.25201,38.87633,9.93333,16.36078,14.91947,34.82509,14.91947,55.47083,0,23.68418-6.07686,43.70665-18.30849,60.06743-12.19268,16.36078-26.76156,27.34587-43.6677,32.95528v2.25935c21.77542,6.77804,38.79842,18.77594,50.99109,36.07162,12.23163,17.29568,18.34745,39.42169,18.34745,66.53383,0,22.51555-5.18091,42.61593-15.50379,60.30116-10.36183,17.60731-25.55398,31.47502-45.65436,41.3694-20.10039,9.97228-44.25201,14.95843-72.45488,14.95843-42.46012,0-77.01252-10.67346-103.69618-32.09829-26.68365-21.42483-40.74613-52.97776-42.26535-94.7367h76.66194c.74013,18.46431,7.05072,33.18901,18.8928,44.25201,11.80313,11.14091,28.04705,16.67241,48.73175,16.67241,19.16548,0,33.89019-5.37568,44.25201-16.04915,10.32287-10.75137,15.50379-24.54117,15.50379-41.44731,0-22.59346-7.16758-38.72051-21.42483-48.45907-14.2962-9.81647-36.46116-14.64679-66.49488-14.64679h-16.36078v-64.81985h16.36078c53.32835,0,80.012-17.84104,80.012-53.60103,0-16.12705-4.79137-28.74823-14.37411-37.7077-9.58274-9.03738-23.37254-13.55607-41.40835-13.55607-17.68522,0-31.28025,4.83033-40.86299,14.41307-9.58274,9.58274-15.1532,21.65856-16.63346,36.30535h-77.2073c1.8698-37.55188,15.11424-66.61174,39.73332-87.10167Z"/>
</svg>