<?xml version="1.0" encoding="UTF-8"?>
<svg id="Layer_1" xmlns="http://www.w3.org/2000/svg" version="1.1" viewBox="0 0 1001 1001">
  <!-- Generator: Adobe Illustrator 29.2.1, SVG Export Plug-In . SVG Version: 2.1.0 Build 116)  -->
  <defs>
    <style>
      .st0 {
        fill: #fff;
      }
    </style>
  </defs>
  <path class="st0" d="M499.5,50.5c60.8,0,119.7,11.9,175.1,35.3,53.6,22.7,101.7,55.1,143.1,96.5s73.8,89.5,96.5,143.1c23.5,55.4,35.3,114.4,35.3,175.1s-11.9,119.7-35.3,175.1c-22.7,53.6-55.1,101.7-96.5,143.1s-89.5,73.8-143.1,96.5c-55.4,23.5-114.4,35.3-175.1,35.3s-119.7-11.9-175.1-35.3c-53.6-22.7-101.7-55.1-143.1-96.5s-73.8-89.5-96.5-143.1c-23.5-55.4-35.3-114.4-35.3-175.1s11.9-119.7,35.3-175.1c22.7-53.6,55.1-101.7,96.5-143.1s89.5-73.8,143.1-96.5c55.4-23.5,114.4-35.3,175.1-35.3M499.5.5C223.4.5-.5,224.4-.5,500.5s223.9,500,500,500,500-223.9,500-500S775.6.5,499.5.5h0Z"/>
  <path class="st0" d="M618,363.8h-182.6v96.4c7.9-9.8,19.2-17.8,33.8-24,14.6-6.2,30.2-9.3,46.8-9.3,30,0,54.7,6.5,73.8,19.7,19.2,13.2,33.1,30,41.7,50.4,8.6,20.5,12.9,42.4,12.9,65.7,0,43.2-12.3,78-36.9,104.3-24.6,26.3-59.7,39.4-105.1,39.4s-77-10.7-102.6-32.1-40-49.4-43.4-84h76.7c3.4,15,11,27,22.8,36.1,11.8,9,27,13.5,45.3,13.5s38.9-6.9,50.2-20.8c11.3-13.9,16.9-32.3,16.9-55.2s-5.7-41.1-17.2-53.3-28.3-18.3-50.4-18.3-28.9,4-39.5,11.8-18,18.4-22.6,31.6h-75.5v-241.2h254.7v69.3h0Z"/>
</svg>