<?xml version="1.0" encoding="UTF-8"?>
<svg id="Layer_1" data-name="Layer 1" xmlns="http://www.w3.org/2000/svg" viewBox="0 0 1001 1001">
  <defs>
    <style>
      .cls-1 {
        fill: none;
        stroke: #fff;
        stroke-miterlimit: 10;
      }

      .cls-2 {
        fill: #fff;
      }
    </style>
  </defs>
  <circle class="cls-1" cx="500.5" cy="500.5" r="500"/>
  <path class="cls-2" d="M618.00545,363.84854h-182.5785v96.37278c7.86876-9.81647,19.16548-17.76313,33.81228-23.99581,14.64679-6.15477,30.22849-9.27111,46.78404-9.27111,30.03372,0,54.65279,6.54431,73.81828,19.71084,19.16548,13.16653,33.07215,29.99476,41.71999,50.40678,8.60889,20.48993,12.93281,42.38221,12.93281,65.67684,0,43.2392-12.30954,77.98638-36.88966,104.31944-24.61908,26.25515-59.67789,39.42169-105.13748,39.42169-42.81071,0-77.01252-10.67346-102.5665-32.09829-25.55398-21.42483-40.006-49.39397-43.39502-83.98533h76.66194c3.38902,15.03633,10.98509,27.03424,22.82718,36.07162,11.84209,8.95947,26.95633,13.47817,45.34273,13.47817,22.16496,0,38.91528-6.93385,50.17306-20.80156,11.29673-13.94562,16.90614-32.33202,16.90614-55.23711,0-23.29463-5.72627-41.05776-17.17882-53.28939s-28.28078-18.30849-50.44574-18.30849c-15.77647,0-28.943,3.97333-39.46064,11.84209s-18.03581,18.3864-22.5545,31.55293h-75.49331v-241.20463h254.72175v69.33854Z"/>
</svg>