<?xml version="1.0" encoding="UTF-8"?>
<svg id="Layer_1" data-name="Layer 1" xmlns="http://www.w3.org/2000/svg" viewBox="0 0 1001 1001">
  <defs>
    <style>
      .cls-1 {
        fill: none;
        stroke: #fff;
        stroke-miterlimit: 10;
      }

      .cls-2 {
        fill: #fff;
      }
    </style>
  </defs>
  <circle class="cls-1" cx="500.5" cy="500.5" r="500"/>
  <path class="cls-2" d="M540.52548,366.38057c-9.23215-7.86876-22.47659-11.84209-39.73332-11.84209-25.94352,0-44.99214,10.43974-57.22377,31.31921-12.19268,20.80156-18.50326,54.76966-18.85385,101.67056,8.99843-14.95843,22.16496-26.72261,39.42169-35.21463,17.29568-8.41411,36.07162-12.62117,56.36678-12.62117,24.42431,0,46.04391,5.21987,64.81985,15.73751,18.77594,10.51764,33.42273,25.86561,43.97933,45.966,10.51764,20.10039,15.77647,44.25201,15.77647,72.37697,0,26.72261-5.37568,50.48469-16.0881,71.28625-10.71241,20.87947-26.37202,37.16234-47.05672,48.7707-20.64574,11.68627-45.26482,17.4515-73.81828,17.4515-39.0711,0-69.80599-8.56993-92.16572-25.86561-22.35973-17.29568-37.94143-41.44731-46.78404-72.45488-8.80366-31.00757-13.24444-69.18272-13.24444-114.68127,0-68.79318,11.84209-120.68022,35.52626-155.81694,23.68418-35.13672,61.04129-52.74404,112.14924-52.74404,39.46064,0,70.07867,10.75137,91.89304,32.1762,21.77542,21.34692,34.35764,48.06953,37.74665,80.012h-73.27292c-3.77856-15.81542-10.24496-27.65751-19.43816-35.52626ZM452.29413,521.96378c-13.51712,11.60836-20.2562,28.5145-20.2562,50.71841,0,22.12601,6.27163,39.65541,18.85385,52.4324,12.58222,12.77699,30.34535,19.16548,53.28939,19.16548,20.2562,0,36.3443-6.23268,48.18639-18.62012,11.80313-12.38745,17.72418-29.13777,17.72418-50.17306,0-21.81437-5.72627-39.11005-17.17882-51.88704-11.45255-12.69908-28.28078-19.16548-50.44574-19.16548-19.90561,0-36.61698,5.84314-50.17306,17.52941Z"/>
</svg>