<?xml version="1.0" encoding="UTF-8"?>
<svg id="Layer_1" xmlns="http://www.w3.org/2000/svg" version="1.1" viewBox="0 0 1001 1001">
  <!-- Generator: Adobe Illustrator 29.2.1, SVG Export Plug-In . SVG Version: 2.1.0 Build 116)  -->
  <defs>
    <style>
      .st0 {
        fill: #fff;
      }
    </style>
  </defs>
  <path class="st0" d="M500.5,50.5c60.8,0,119.7,11.9,175.1,35.3,53.6,22.7,101.7,55.1,143.1,96.5s73.8,89.5,96.5,143.1c23.5,55.4,35.3,114.4,35.3,175.1s-11.9,119.7-35.3,175.1c-22.7,53.6-55.1,101.7-96.5,143.1s-89.5,73.8-143.1,96.5c-55.4,23.5-114.4,35.3-175.1,35.3s-119.7-11.9-175.1-35.3c-53.6-22.7-101.7-55.1-143.1-96.5s-73.8-89.5-96.5-143.1c-23.5-55.4-35.3-114.4-35.3-175.1s11.9-119.7,35.3-175.1c22.7-53.6,55.1-101.7,96.5-143.1s89.5-73.8,143.1-96.5c55.4-23.5,114.4-35.3,175.1-35.3M500.5.5C224.4.5.5,224.4.5,500.5s223.9,500,500,500,500-223.9,500-500S776.6.5,500.5.5h0Z"/>
  <path class="st0" d="M540.5,366.4c-9.2-7.9-22.5-11.8-39.7-11.8-25.9,0-45,10.4-57.2,31.3-12.2,20.8-18.5,54.8-18.9,101.7,9-15,22.2-26.7,39.4-35.2,17.3-8.4,36.1-12.6,56.4-12.6s46,5.2,64.8,15.7,33.4,25.9,44,46c10.5,20.1,15.8,44.3,15.8,72.4s-5.4,50.5-16.1,71.3c-10.7,20.9-26.4,37.2-47.1,48.8-20.6,11.7-45.3,17.5-73.8,17.5s-69.8-8.6-92.2-25.9c-22.4-17.3-37.9-41.4-46.8-72.5-8.8-31-13.2-69.2-13.2-114.7,0-68.8,11.8-120.7,35.5-155.8s61-52.7,112.1-52.7,70.1,10.8,91.9,32.2c21.8,21.3,34.4,48.1,37.7,80h-73.3c-3.8-15.8-10.2-27.7-19.4-35.5h0ZM452.3,522c-13.5,11.6-20.3,28.5-20.3,50.7s6.3,39.7,18.9,52.4,30.3,19.2,53.3,19.2,36.3-6.2,48.2-18.6c11.8-12.4,17.7-29.1,17.7-50.2s-5.7-39.1-17.2-51.9c-11.5-12.7-28.3-19.2-50.4-19.2s-36.6,5.8-50.2,17.5h0Z"/>
</svg>