<?xml version="1.0" encoding="UTF-8"?>
<svg id="Layer_1" data-name="Layer 1" xmlns="http://www.w3.org/2000/svg" viewBox="0 0 1001 1001">
  <defs>
    <style>
      .cls-1 {
        fill: none;
        stroke: #fff;
        stroke-miterlimit: 10;
      }

      .cls-2 {
        fill: #fff;
      }
    </style>
  </defs>
  <circle class="cls-1" cx="500.5" cy="500.5" r="500"/>
  <path class="cls-2" d="M361.56972,397.0765c0-20.33411,5.18091-38.79842,15.50379-55.54874,10.32287-16.67241,25.94352-30.07267,46.78404-39.96705,20.84052-9.97228,46.31659-14.95843,76.3503-14.95843,30.07267,0,55.54874,4.98614,76.38926,14.95843,20.84052,9.89438,36.42221,23.29463,46.78404,39.96705,10.32287,16.75032,15.50379,35.21463,15.50379,55.54874,0,20.64574-5.103,38.79842-15.23111,54.38011-10.1281,15.58169-23.68418,27.73542-40.59031,36.38326,20.6847,8.95947,36.85071,22.12601,48.49802,39.42169,11.60836,17.29568,17.4515,37.78561,17.4515,61.39188,0,25.63189-6.4664,47.8358-19.43816,66.84547-12.97176,18.93176-30.73489,33.50064-53.25044,43.62874-22.5545,10.20601-47.91371,15.27006-76.11658,15.27006-28.16391,0-53.44521-5.06405-75.80494-15.27006-22.35973-10.1281-40.006-24.69699-52.97776-43.62874-12.93281-19.00967-19.43816-41.21358-19.43816-66.84547,0-23.60627,5.84314-44.1741,17.49045-61.70351,11.64732-17.4515,27.77437-30.46221,48.45907-39.11005-37.59084-19.55503-56.36678-49.78351-56.36678-90.76337ZM448.08708,538.55829c-13.32235,10.90719-20.02248,26.48888-20.02248,46.74508,0,18.77594,6.50536,34.12391,19.47712,45.966,12.93281,11.84209,30.50117,17.76313,52.66613,17.76313s39.65541-6.07686,52.4324-18.07477,19.16548-27.26797,19.16548-45.65436c0-19.86666-6.58327-35.37045-19.71084-46.51136-13.16653-11.063-30.46221-16.5945-51.88704-16.5945-21.38588,0-38.79842,5.45359-52.12077,16.36078ZM545.58953,365.52357c-11.063-10.20601-26.2162-15.27006-45.38168-15.27006-18.77594,0-33.69541,5.06405-44.79737,15.27006-11.063,10.1281-16.63346,24.61908-16.63346,43.39502,0,16.90614,5.72627,30.3843,17.21777,40.59031,11.45255,10.1281,26.17725,15.19215,44.21306,15.19215s32.87737-5.14196,44.52469-15.50379c11.64732-10.36183,17.49045-23.9179,17.49045-40.82404,0-18.46431-5.5315-32.72156-16.63346-42.84966Z"/>
</svg>