<?xml version="1.0" encoding="UTF-8"?>
<svg id="Layer_1" xmlns="http://www.w3.org/2000/svg" version="1.1" viewBox="0 0 1001 1001">
  <!-- Generator: Adobe Illustrator 29.2.1, SVG Export Plug-In . SVG Version: 2.1.0 Build 116)  -->
  <defs>
    <style>
      .st0 {
        fill: #fff;
      }
    </style>
  </defs>
  <path class="st0" d="M500.5,50.5c60.8,0,119.7,11.9,175.1,35.3,53.6,22.7,101.7,55.1,143.1,96.5s73.8,89.5,96.5,143.1c23.5,55.4,35.3,114.4,35.3,175.1s-11.9,119.7-35.3,175.1c-22.7,53.6-55.1,101.7-96.5,143.1s-89.5,73.8-143.1,96.5c-55.4,23.5-114.4,35.3-175.1,35.3s-119.7-11.9-175.1-35.3c-53.6-22.7-101.7-55.1-143.1-96.5s-73.8-89.5-96.5-143.1c-23.5-55.4-35.3-114.4-35.3-175.1s11.9-119.7,35.3-175.1c22.7-53.6,55.1-101.7,96.5-143.1s89.5-73.8,143.1-96.5c55.4-23.5,114.4-35.3,175.1-35.3M500.5.5C224.4.5.5,224.4.5,500.5s223.9,500,500,500,500-223.9,500-500S776.6.5,500.5.5h0Z"/>
  <path class="st0" d="M361.6,397.1c0-20.3,5.2-38.8,15.5-55.5,10.3-16.7,25.9-30.1,46.8-40,20.8-10,46.3-15,76.4-15s55.5,5,76.4,15c20.8,9.9,36.4,23.3,46.8,40,10.3,16.8,15.5,35.2,15.5,55.5s-5.1,38.8-15.2,54.4c-10.1,15.6-23.7,27.7-40.6,36.4,20.7,9,36.9,22.1,48.5,39.4,11.6,17.3,17.5,37.8,17.5,61.4s-6.5,47.8-19.4,66.8c-13,18.9-30.7,33.5-53.3,43.6-22.6,10.2-47.9,15.3-76.1,15.3s-53.4-5.1-75.8-15.3c-22.4-10.1-40-24.7-53-43.6-12.9-19-19.4-41.2-19.4-66.8s5.8-44.2,17.5-61.7c11.6-17.5,27.8-30.5,48.5-39.1-37.6-19.6-56.4-49.8-56.4-90.8h0ZM448.1,538.6c-13.3,10.9-20,26.5-20,46.7s6.5,34.1,19.5,46c12.9,11.8,30.5,17.8,52.7,17.8s39.7-6.1,52.4-18.1,19.2-27.3,19.2-45.7-6.6-35.4-19.7-46.5c-13.2-11.1-30.5-16.6-51.9-16.6s-38.8,5.5-52.1,16.4ZM545.6,365.5c-11.1-10.2-26.2-15.3-45.4-15.3s-33.7,5.1-44.8,15.3c-11.1,10.1-16.6,24.6-16.6,43.4s5.7,30.4,17.2,40.6c11.5,10.1,26.2,15.2,44.2,15.2s32.9-5.1,44.5-15.5c11.6-10.4,17.5-23.9,17.5-40.8s-5.5-32.7-16.6-42.8h0Z"/>
</svg>