<?xml version="1.0" encoding="UTF-8"?>
<svg id="Layer_1" xmlns="http://www.w3.org/2000/svg" version="1.1" viewBox="0 0 1001 1001">
  <!-- Generator: Adobe Illustrator 29.2.1, SVG Export Plug-In . SVG Version: 2.1.0 Build 116)  -->
  <defs>
    <style>
      .st0 {
        fill: #fff;
      }
    </style>
  </defs>
  <path class="st0" d="M500.5,50.5c60.8,0,119.7,11.9,175.1,35.3,53.6,22.7,101.7,55.1,143.1,96.5s73.8,89.5,96.5,143.1c23.5,55.4,35.3,114.4,35.3,175.1s-11.9,119.7-35.3,175.1c-22.7,53.6-55.1,101.7-96.5,143.1s-89.5,73.8-143.1,96.5c-55.4,23.5-114.4,35.3-175.1,35.3s-119.7-11.9-175.1-35.3c-53.6-22.7-101.7-55.1-143.1-96.5s-73.8-89.5-96.5-143.1c-23.5-55.4-35.3-114.4-35.3-175.1s11.9-119.7,35.3-175.1c22.7-53.6,55.1-101.7,96.5-143.1s89.5-73.8,143.1-96.5c55.4-23.5,114.4-35.3,175.1-35.3M500.5.5C224.4.5.5,224.4.5,500.5s223.9,500,500,500,500-223.9,500-500S776.6.5,500.5.5h0Z"/>
  <path class="st0" d="M463.3,632.9c10.7,8.9,25.1,13.2,43.1,13.2s40.2-9.7,50.7-29c10.5-19.4,15.8-52,15.8-97.8-8.6,12-20.8,21.3-36.3,28.1-15.6,6.8-32.4,10.2-50.4,10.2s-45.8-5-65.1-15c-19.4-10-34.7-24.9-45.9-44.6-11.3-19.7-16.9-43.6-16.9-71.8,0-41.7,12.4-74.9,37.2-99.5,24.8-24.6,58.6-36.9,101.5-36.9s91,17.1,113,51.3c22,34.1,33,85.6,33,154.4s-4.2,88.8-12.7,120.1c-8.5,31.2-22.9,54.8-43.4,71-20.5,16.2-48.4,24.2-83.7,24.2s-51.5-5.3-71-16c-19.6-10.7-34.5-24.8-44.8-42.3-10.4-17.5-16.3-36.7-17.8-57.7h73.3c3,16.5,9.9,29.2,20.6,38h0ZM548.7,475.4c11.3-12,16.9-28.1,16.9-48.5s-5.9-39.3-17.8-51.6c-11.8-12.2-27.9-18.3-48.2-18.3s-36.3,6.3-48.2,18.9c-11.8,12.6-17.8,29.2-17.8,49.9s5.7,36.1,17.2,48.7c11.5,12.6,28.6,18.9,51.5,18.9s34.9-6,46.2-18.1h0Z"/>
</svg>