<?xml version="1.0" encoding="UTF-8"?>
<svg id="Layer_1" data-name="Layer 1" xmlns="http://www.w3.org/2000/svg" viewBox="0 0 1001 1001">
  <defs>
    <style>
      .cls-1 {
        fill: none;
        stroke: #fff;
        stroke-miterlimit: 10;
      }

      .cls-2 {
        fill: #fff;
      }
    </style>
  </defs>
  <circle class="cls-1" cx="500.5" cy="500.5" r="500"/>
  <path class="cls-2" d="M463.31818,632.9444c10.71241,8.88157,25.08653,13.24444,43.12234,13.24444,23.29463,0,40.20077-9.66065,50.71841-28.98195,10.51764-19.39921,15.77647-51.96495,15.77647-97.77513-8.64784,11.9979-20.76261,21.34692-36.3443,28.12496-15.62065,6.77804-32.40992,10.20601-50.44574,10.20601-24.07372,0-45.77123-4.98614-65.09253-14.95843-19.36026-9.97228-34.66927-24.8528-45.92704-44.56365-11.29673-19.71084-16.94509-43.62874-16.94509-71.83161,0-41.68103,12.4264-74.87004,37.2013-99.48912,24.81385-24.61908,58.62612-36.92862,101.47578-36.92862,53.32835,0,90.99709,17.13986,113.00624,51.34168,21.97019,34.12391,32.95528,85.62141,32.95528,154.41459,0,48.84861-4.20706,88.81566-12.66013,120.05695-8.45307,31.16339-22.94404,54.84756-43.43397,70.97462-20.45097,16.20496-48.38116,24.22953-83.6737,24.22953-27.81332,0-51.4975-5.29778-71.01357-16.04915-19.55503-10.67346-34.4745-24.77489-44.79737-42.3043-10.36183-17.4515-16.28287-36.69489-17.76313-57.73018h73.27292c2.99948,16.5166,9.85542,29.21568,20.56784,38.01933ZM548.70587,475.41347c11.25777-11.9979,16.90614-28.12496,16.90614-48.45907,0-22.12601-5.92104-39.34378-17.76313-51.57541-11.84209-12.15372-27.89123-18.30849-48.18639-18.30849s-36.3443,6.31059-48.18639,18.85385c-11.84209,12.62117-17.76313,29.21568-17.76313,49.93933,0,19.86666,5.72627,36.14953,17.21777,48.69279,11.45255,12.62117,28.63136,18.93176,51.53645,18.93176,19.55503,0,34.94195-5.99895,46.23868-18.07477Z"/>
</svg>