<?xml version="1.0" encoding="UTF-8"?>
<svg xmlns="http://www.w3.org/2000/svg" xmlns:xlink="http://www.w3.org/1999/xlink" viewBox="0 0 962.2 158.65">
  <defs>
    <style>
      .cls-1 {
        fill: url(#linear-gradient);
      }

      .cls-2 {
        fill: none;
        isolation: isolate;
      }

      .cls-3 {
        fill: #999;
      }

      .cls-4 {
        fill: #14a0c0;
      }

      .cls-4, .cls-5, .cls-6 {
        mix-blend-mode: multiply;
      }

      .cls-5 {
        fill: #7de314;
      }

      .cls-6 {
        fill: #01cc9b;
      }
    </style>
    <linearGradient id="linear-gradient" x1="595.72" y1="77.87" x2="962.07" y2="77.87" gradientUnits="userSpaceOnUse">
      <stop offset="0" stop-color="#7de314"/>
      <stop offset=".5" stop-color="#01cc9b"/>
      <stop offset="1" stop-color="#14a0c0"/>
    </linearGradient>
  </defs>
  <g class="cls-2">
    <g id="Layer_2" data-name="Layer 2">
      <g id="Layer_1-2" data-name="Layer 1">
        <g>
          <g>
            <path class="cls-3" d="m0,81.17C0,37.9,33.04,3.7,77.48,3.7c22.8,0,40.64,9.06,50.58,18.13,3.51,3.22,5.85,7.6,5.85,12.28,0,4.09-1.17,7.6-4.68,11.7l-45.03,53.5c-3.22,3.8-6.72,5.26-11.11,5.26-8.77,0-15.2-6.14-15.2-14.62,0-3.51.88-7.02,3.51-9.65l35.38-41.52c-4.97-3.51-12.86-5.26-19.3-5.26-25.14,0-45.03,21.05-45.03,47.66s19.59,47.66,45.03,47.66c13.74,0,23.97-5.85,30.99-13.16,4.68-3.8,7.89-7.31,14.03-7.31,9.06,0,15.79,6.43,15.79,15.5,0,3.22-1.75,7.31-4.68,10.53-11.11,13.45-31.28,24.27-56.14,24.27C33.33,158.65,0,124.45,0,81.17Z"/>
            <path class="cls-3" d="m168.4,71.82c0-41.81,28.94-68.12,65.78-68.12s65.78,26.31,65.78,68.12v70.17c0,9.06-7.31,16.37-16.08,16.37s-16.08-7.31-16.08-16.37v-71.34c0-24.27-14.91-37.13-33.62-37.13s-33.62,12.86-33.62,37.13v71.34c0,9.06-7.02,16.37-16.08,16.37s-16.08-7.31-16.08-16.37v-70.17Z"/>
            <path class="cls-3" d="m330.96,81.17c0-43.27,33.04-77.48,77.48-77.48,22.8,0,40.64,9.06,50.58,18.13,3.51,3.22,5.85,7.6,5.85,12.28,0,4.09-1.17,7.6-4.68,11.7l-45.03,53.5c-3.22,3.8-6.72,5.26-11.11,5.26-8.77,0-15.2-6.14-15.2-14.62,0-3.51.88-7.02,3.51-9.65l35.38-41.52c-4.97-3.51-12.86-5.26-19.3-5.26-25.14,0-45.03,21.05-45.03,47.66s19.59,47.66,45.03,47.66c13.74,0,23.97-5.85,30.99-13.16,4.68-3.8,7.89-7.31,14.03-7.31,9.06,0,15.79,6.43,15.79,15.5,0,3.22-1.75,7.31-4.68,10.53-11.11,13.45-31.28,24.27-56.14,24.27-44.15,0-77.48-34.21-77.48-77.48Z"/>
            <path class="cls-3" d="m499.36,72.11c0-41.52,27.78-68.42,65.78-68.42,8.19,0,14.91,6.43,14.91,14.91s-6.72,14.91-14.91,14.91c-19.3,0-33.62,12.86-33.62,38.59v69.88c0,9.06-7.02,16.37-16.08,16.37s-16.08-7.31-16.08-16.37v-69.88Z"/>
          </g>
          <g>
            <g>
              <path class="cls-5" d="m726.23,92.89c-5.88,0-11.23,3.16-14.28,8.18-7.85,12.91-22.06,21.55-38.24,21.55-25.26,0-45.7-21.05-44.69-46.53.9-22.83,19.27-41.54,42.08-42.84,17.3-.99,32.66,7.92,40.92,21.58,3,4.96,8.28,8.08,14.07,8.08h.63c12.54,0,20.48-13.63,14.11-24.44-1.75-2.98-3.7-5.83-5.82-8.53-14.69-18.73-37.76-30.58-63.52-29.86-40.74,1.14-73.98,34-75.57,74.72-1.73,44.34,33.84,80.96,77.79,80.96,24.86,0,47.03-11.7,61.29-29.89,1.94-2.47,3.73-5.06,5.36-7.76,6.7-11.07-1.19-25.21-14.13-25.21h0Z"/>
              <path class="cls-6" d="m726.52,62.9c5.78,0,11.06-3.1,14.05-8.05,7.84-12.98,22.08-21.68,38.32-21.68s30.48,8.7,38.32,21.68c2.99,4.95,8.27,8.05,14.05,8.05h.63c12.54,0,20.48-13.63,14.11-24.44-1.76-2.98-3.7-5.83-5.83-8.54C825.92,11.74,803.75.04,778.89.04s-47.02,11.7-61.29,29.89c-2.12,2.71-4.07,5.56-5.83,8.53-6.37,10.8,1.57,24.44,14.11,24.44h.63Zm104.9,29.98c-5.88,0-11.23,3.16-14.28,8.18-7.85,12.91-22.06,21.55-38.24,21.55s-30.39-8.64-38.24-21.55c-3.05-5.02-8.41-8.18-14.28-8.18h0c-12.94,0-20.83,14.14-14.13,25.21,1.63,2.7,3.43,5.29,5.36,7.76,14.27,18.19,36.44,29.89,61.29,29.89s47.03-11.7,61.29-29.89c1.94-2.47,3.73-5.06,5.36-7.76,6.7-11.07-1.19-25.21-14.13-25.21h0Z"/>
              <path class="cls-4" d="m884.35.01c-24.85,0-47.02,11.7-61.29,29.89-2.12,2.71-4.07,5.56-5.83,8.54-6.37,10.8,1.57,24.44,14.11,24.44h.63c5.79,0,11.07-3.12,14.07-8.08,8.26-13.66,23.62-22.58,40.93-21.58,22.81,1.31,41.17,20.02,42.07,42.85,1,25.48-19.43,46.52-44.69,46.52-16.18,0-30.39-8.64-38.24-21.55-3.05-5.02-8.41-8.18-14.28-8.18h0c-12.94,0-20.83,14.14-14.13,25.21,1.63,2.7,3.43,5.29,5.36,7.76,14.71,18.74,37.8,30.6,63.57,29.86,40.73-1.17,73.95-34.05,75.52-74.77C963.85,36.61,928.3.01,884.35.01Z"/>
            </g>
            <path class="cls-1" d="m884.21,0c-20.32,0-38.85,7.83-52.74,20.64C817.6,7.85,799.08.03,778.76.03s-38.73,7.78-52.59,20.5C711.8,7.34,692.48-.53,671.35.06c-40.74,1.14-73.98,34-75.57,74.72-1.73,44.33,33.84,80.96,77.79,80.96,20.26,0,38.73-7.78,52.6-20.5,13.87,12.72,32.34,20.5,52.59,20.5s38.86-7.83,52.74-20.64c14.4,13.27,33.79,21.19,54.99,20.58,40.73-1.17,73.95-34.05,75.52-74.77,1.7-44.31-33.85-80.91-77.8-80.91Zm0,122.58c-16.18,0-30.39-8.64-38.24-21.55-3.05-5.02-8.41-8.18-14.28-8.18-.46,0-.92.02-1.36.06-5.5.32-10.44,3.4-13.33,8.15-7.85,12.91-22.06,21.55-38.24,21.55s-30.39-8.64-38.24-21.55c-1.86-3.05-4.56-5.41-7.72-6.79,0,0-.02,0-.03-.01-2.03-.89-4.24-1.38-6.54-1.38-.02,0-.05,0-.07,0s-.05,0-.07,0c-1.92,0-3.78.34-5.52.97,0,0,0,0,0,0-.34.12-.68.26-1.01.4-.01,0-.02.01-.04.02-3.15,1.39-5.86,3.74-7.71,6.79-7.85,12.91-22.06,21.55-38.24,21.55-25.26,0-45.7-21.05-44.69-46.53.9-22.83,19.27-41.54,42.08-42.84,16.59-.95,31.39,7.21,39.86,19.92,2.48,5.56,8,9.74,14.94,9.74h.81c6.9,0,12.4-4.13,14.9-9.65,8.02-12.09,21.73-20.09,37.29-20.09s30.48,8.7,38.32,21.68c2.99,4.95,8.27,8.05,14.05,8.05h.63c5.28,0,9.74-2.43,12.67-6.03.54-.65,1.03-1.33,1.48-2.07,8.26-13.66,23.62-22.58,40.93-21.58,22.81,1.31,41.17,20.02,42.07,42.85,1,25.48-19.43,46.52-44.69,46.52Z"/>
            <circle class="cls-6" cx="778.89" cy="77.87" r="23.02"/>
            <circle class="cls-5" cx="675.3" cy="77.89" r="23.02"/>
            <circle class="cls-4" cx="882.92" cy="77.87" r="23.02"/>
          </g>
        </g>
      </g>
    </g>
  </g>
</svg>